<?xml version="1.0" standalone="no"?>
<!DOCTYPE svg PUBLIC "-//W3C//DTD SVG 20010904//EN"
 "http://www.w3.org/TR/2001/REC-SVG-20010904/DTD/svg10.dtd">
<svg version="1.0" xmlns="http://www.w3.org/2000/svg"
 width="240.000000pt" height="240.000000pt" viewBox="0 0 240.000000 240.000000"
 preserveAspectRatio="xMidYMid meet">

<g transform="translate(0.000000,240.000000) scale(0.100000,-0.100000)"
fill="#000000" stroke="none">
<path d="M422 1681 c-167 -66 -302 -174 -355 -284 -77 -159 -48 -289 92 -419
39 -36 71 -69 71 -72 0 -4 -52 -115 -115 -247 -115 -240 -115 -241 -115 -315
l0 -74 57 0 c44 0 62 -5 80 -22 30 -28 100 -38 197 -27 176 19 282 113 431
382 80 143 81 144 220 173 208 44 352 112 464 220 l66 65 -95 -61 c-214 -139
-470 -227 -545 -188 -27 15 -26 15 86 43 185 45 360 115 469 188 48 32 140
116 140 128 0 4 -51 -16 -112 -46 -407 -192 -827 -224 -1114 -84 -183 89 -239
204 -169 344 37 72 141 181 253 264 46 33 80 61 75 61 -4 -1 -41 -14 -81 -29z"/>
<path d="M1920 1694 c-30 -8 -80 -28 -111 -43 -46 -23 -66 -27 -105 -24 -57 6
-103 -19 -142 -77 -26 -39 -23 -43 51 -55 32 -5 37 -10 37 -32 0 -33 39 -101
62 -109 22 -6 22 -16 4 -52 -7 -15 -17 -37 -20 -49 -7 -21 -4 -23 26 -23 18 0
50 5 72 9 25 6 47 6 61 -1 39 -17 66 -3 172 92 145 128 179 185 137 231 -15
17 -15 22 7 73 12 31 19 59 15 63 -15 15 -209 13 -266 -3z m180 -46 c14 -26
13 -29 -7 -49 -45 -46 -111 14 -67 62 24 26 55 21 74 -13z"/>
<path d="M618 1678 c-9 -14 -71 -134 -138 -267 -129 -260 -129 -259 -69 -280
l30 -10 -21 26 c-44 56 -18 113 115 243 53 52 105 112 116 132 25 48 25 125 1
156 l-18 24 -16 -24z"/>
<path d="M377 1555 c-71 -59 -136 -135 -167 -195 -43 -84 -34 -160 26 -226 22
-24 33 -32 29 -19 -4 11 -12 43 -18 71 -22 103 31 236 139 353 36 39 64 71 62
71 -2 0 -34 -25 -71 -55z"/>
<path d="M1587 1419 c-22 -13 -50 -67 -43 -85 7 -19 90 -19 106 1 11 13 8 15
-19 15 -38 0 -50 23 -27 49 27 30 18 40 -17 20z"/>
<path d="M1631 1051 c2 -6 92 -184 199 -396 l195 -385 188 0 187 0 0 200 0
200 -41 83 c-72 142 -163 237 -269 279 -49 19 -79 22 -259 26 -141 3 -202 1
-200 -7z"/>
</g>
</svg>
