<?xml version="1.0" standalone="no"?>
<!DOCTYPE svg PUBLIC "-//W3C//DTD SVG 20010904//EN"
 "http://www.w3.org/TR/2001/REC-SVG-20010904/DTD/svg10.dtd">
<svg version="1.0" xmlns="http://www.w3.org/2000/svg"
 width="225.000000pt" height="225.000000pt" viewBox="0 0 225.000000 225.000000"
 preserveAspectRatio="xMidYMid meet">

<g transform="translate(0.000000,225.000000) scale(0.100000,-0.100000)"
fill="#000000" stroke="none">
<path d="M1025 1778 c-16 -6 -133 -65 -260 -132 -223 -117 -232 -121 -305
-126 l-75 -5 0 -370 0 -370 70 -6 c57 -5 89 -16 170 -57 171 -85 144 -82 697
-82 l488 0 37 33 c31 30 37 41 41 90 8 102 -44 147 -171 147 -74 0 -77 1 -67
19 15 29 12 95 -6 140 -15 37 -14 40 10 75 33 49 41 104 22 150 l-15 36 145 0
c116 0 153 3 181 17 87 41 82 185 -8 238 -32 19 -52 20 -311 20 l-277 0 -84
83 c-47 45 -101 89 -120 97 -41 17 -118 18 -162 3z m149 -73 c18 -9 52 -36 76
-60 l44 -45 -61 0 c-66 0 -89 -14 -78 -50 6 -20 12 -20 385 -20 257 0 387 -4
403 -11 44 -20 60 -79 30 -111 -15 -17 -40 -18 -365 -18 -314 0 -349 -2 -355
-16 -3 -9 -2 -24 4 -33 8 -13 37 -17 169 -21 l158 -5 23 -34 c25 -37 23 -69
-7 -111 -17 -25 -20 -25 -181 -30 l-164 -5 0 -30 0 -30 155 -3 156 -2 17 -29
c22 -38 22 -83 -2 -112 -18 -23 -26 -24 -172 -29 -138 -4 -154 -7 -157 -23 -9
-45 5 -47 277 -47 216 0 260 -2 279 -16 28 -19 29 -63 3 -95 l-19 -24 -449 -3
c-518 -4 -526 -3 -686 81 l-97 52 2 320 3 320 100 53 c361 191 384 202 431
202 25 0 60 -7 78 -15z m-674 -560 l0 -305 -30 0 -30 0 0 305 0 305 30 0 30 0
0 -305z"/>
</g>
</svg>
