<?xml version="1.0" standalone="no"?>
<!DOCTYPE svg PUBLIC "-//W3C//DTD SVG 20010904//EN"
 "http://www.w3.org/TR/2001/REC-SVG-20010904/DTD/svg10.dtd">
<svg version="1.0" xmlns="http://www.w3.org/2000/svg"
 width="512.000000pt" height="512.000000pt" viewBox="0 0 512.000000 512.000000"
 preserveAspectRatio="xMidYMid meet">

<g transform="translate(0.000000,512.000000) scale(0.100000,-0.100000)"
fill="#000000" stroke="none">
<path d="M3024 4890 c-50 -10 -150 -60 -304 -150 -63 -37 -176 -102 -250 -145
-74 -43 -180 -103 -235 -135 -55 -32 -161 -92 -235 -135 -74 -43 -178 -103
-230 -133 -52 -31 -124 -72 -160 -92 -36 -20 -126 -72 -200 -115 -74 -43 -256
-148 -405 -233 -695 -398 -670 -383 -709 -435 -63 -83 -91 -214 -66 -315 6
-29 48 -113 92 -189 44 -76 116 -201 161 -278 44 -77 110 -192 147 -255 36
-63 104 -180 150 -260 46 -80 117 -203 158 -275 42 -71 105 -182 142 -245 37
-63 102 -176 145 -250 117 -203 213 -369 305 -530 146 -254 212 -361 242 -396
45 -51 140 -94 224 -101 97 -8 163 13 314 101 69 40 197 115 285 166 88 51
216 125 285 165 69 40 181 105 250 145 69 40 181 105 250 145 360 209 590 341
835 483 72 41 182 105 245 142 63 37 152 88 197 114 119 69 163 112 203 198
29 63 34 83 34 150 0 72 -4 85 -44 165 -24 49 -74 138 -110 198 -36 61 -69
117 -72 126 -4 9 -37 69 -75 132 -37 64 -108 184 -157 269 -48 84 -119 206
-157 270 -38 64 -69 119 -69 122 0 3 -31 57 -70 121 -38 64 -70 118 -70 121 0
3 -31 58 -69 122 -37 64 -110 189 -161 277 -51 88 -121 208 -156 267 -35 59
-64 110 -64 114 0 3 -34 62 -75 131 -41 68 -75 127 -75 131 0 20 -122 192
-152 215 -84 64 -204 96 -294 77z m366 -809 c5 -11 8 -26 5 -33 -6 -19 118
-192 141 -196 19 -4 44 -28 44 -44 0 -4 -9 -17 -20 -28 -24 -24 -82 -287 -73
-333 3 -17 0 -34 -10 -45 -11 -12 -19 -57 -26 -162 -7 -80 -14 -158 -16 -175
-2 -16 2 -38 9 -47 19 -26 280 -102 303 -90 25 14 53 -3 53 -33 0 -13 -5 -27
-11 -31 -19 -11 -6 -260 15 -283 20 -22 20 -30 -1 -54 -25 -27 -46 -272 -26
-301 11 -17 10 -24 -3 -44 -25 -37 -35 -228 -15 -264 15 -25 14 -28 -6 -50
-25 -27 -95 -268 -82 -282 13 -15 11 -37 -6 -56 -8 -9 -17 -42 -21 -73 -6 -47
-4 -61 11 -76 35 -40 -7 -85 -52 -55 -23 14 -26 14 -42 0 -24 -22 -37 -20 -55
6 -14 19 -14 25 -2 43 21 31 -11 428 -38 467 -10 15 -15 32 -11 38 3 6 -3 10
-15 10 -11 0 -29 5 -39 11 -15 10 -22 8 -40 -10 -23 -23 -29 -89 -10 -108 7
-7 9 -23 5 -37 -5 -19 -13 -26 -31 -26 -13 0 -27 5 -30 10 -8 13 -52 13 -60 0
-9 -15 -41 -12 -55 5 -10 12 -10 21 -1 44 15 35 5 101 -15 101 -8 0 -17 7 -20
15 -9 22 -309 22 -318 0 -3 -8 -14 -15 -24 -15 -11 0 -25 7 -32 15 -16 20
-269 22 -300 3 -16 -10 -24 -10 -40 0 -14 8 -71 12 -188 12 -192 0 -193 0
-211 -83 -8 -35 -8 -52 1 -66 6 -10 8 -26 5 -35 -7 -18 -52 -22 -62 -5 -4 6
-31 9 -64 7 -52 -3 -56 -1 -59 20 -2 13 2 30 8 37 11 14 9 57 -6 108 -6 18
-39 23 -49 7 -3 -5 -17 -10 -30 -10 -18 0 -23 -4 -18 -16 3 -8 -3 -25 -14 -37
-18 -19 -23 -51 -38 -235 l-17 -212 24 -19 c19 -16 21 -23 12 -38 -16 -25 -42
-28 -65 -7 -17 15 -24 16 -39 6 -11 -7 -28 -12 -39 -12 -24 0 -37 36 -21 55
17 20 9 143 -9 155 -10 5 -12 19 -8 44 8 50 -53 270 -82 297 -25 23 -26 33 -7
51 20 20 5 231 -18 257 -19 21 -20 30 -3 50 11 13 12 41 3 153 -7 82 -16 142
-24 150 -15 15 -16 50 0 66 18 18 24 247 8 277 -19 35 3 59 45 51 19 -4 86 8
183 32 201 50 190 33 168 256 -14 147 -19 173 -36 185 -22 15 -26 41 -10 57
14 14 -47 316 -66 327 -8 4 -14 19 -14 33 0 19 8 28 33 39 34 14 141 154 140
184 0 20 26 51 42 51 7 0 19 -7 26 -17 8 -9 47 -31 87 -49 60 -28 80 -33 117
-27 25 3 50 12 56 19 13 15 45 19 53 6 2 -4 55 0 118 11 85 14 116 23 126 38
16 23 40 24 64 2 25 -22 239 -39 281 -22 23 10 31 9 47 -6 10 -9 70 -30 133
-46 l114 -29 69 34 c38 18 79 36 92 40 13 4 27 19 32 32 12 30 55 33 70 5z"/>
<path d="M1508 2173 c7 -3 16 -2 19 1 4 3 -2 6 -13 5 -11 0 -14 -3 -6 -6z"/>
<path d="M1491 2024 c0 -11 3 -14 6 -6 3 7 2 16 -1 19 -3 4 -6 -2 -5 -13z"/>
<path d="M1605 1980 c10 -11 20 -20 23 -20 3 0 -3 9 -13 20 -10 11 -20 20 -23
20 -3 0 3 -9 13 -20z"/>
<path d="M1501 1960 c0 -28 24 -47 69 -53 l45 -6 -43 12 c-28 8 -49 21 -57 37
-8 14 -14 19 -14 10z"/>
<path d="M1648 1893 c6 -2 18 -2 25 0 6 3 1 5 -13 5 -14 0 -19 -2 -12 -5z"/>
<path d="M1510 1858 c0 -13 15 -76 33 -141 32 -114 34 -117 46 -90 43 92 60
134 52 129 -8 -5 -61 83 -61 100 0 2 21 2 48 -1 46 -4 46 -4 7 4 -22 5 -59 11
-82 15 -40 6 -43 5 -43 -16z"/>
<path d="M1677 1751 c-4 -17 -3 -21 5 -13 5 5 8 16 6 23 -3 8 -7 3 -11 -10z"/>
<path d="M1633 1646 c-32 -72 -31 -110 5 -186 l31 -65 2 115 c2 63 4 131 5
151 2 51 -18 44 -43 -15z"/>
<path d="M1597 1440 c6 -46 23 -75 41 -69 6 2 -3 29 -18 59 l-28 55 5 -45z"/>
</g>
</svg>
